<?xml version="1.0" encoding="UTF-8" standalone="no"?>
<!-- Created with Inkscape (http://www.inkscape.org/) -->

<svg
   width="70.615234mm"
   height="86.117569mm"
   viewBox="0 0 70.615234 86.117569"
   version="1.1"
   id="svg192"
   inkscape:version="1.2.2 (b0a8486541, 2022-12-01)"
   sodipodi:docname="splash2.svg"
   xmlns:inkscape="http://www.inkscape.org/namespaces/inkscape"
   xmlns:sodipodi="http://sodipodi.sourceforge.net/DTD/sodipodi-0.dtd"
   xmlns="http://www.w3.org/2000/svg"
   xmlns:svg="http://www.w3.org/2000/svg">
  <sodipodi:namedview
     id="namedview194"
     pagecolor="#ffffff"
     bordercolor="#000000"
     borderopacity="0.25"
     inkscape:showpageshadow="2"
     inkscape:pageopacity="0.0"
     inkscape:pagecheckerboard="0"
     inkscape:deskcolor="#d1d1d1"
     inkscape:document-units="mm"
     showgrid="false"
     inkscape:zoom="0.914906"
     inkscape:cx="217.50868"
     inkscape:cy="419.16874"
     inkscape:window-width="886"
     inkscape:window-height="1986"
     inkscape:window-x="1955"
     inkscape:window-y="70"
     inkscape:window-maximized="1"
     inkscape:current-layer="layer1" />
  <defs
     id="defs189" />
  <g
     inkscape:label="Layer 1"
     inkscape:groupmode="layer"
     id="layer1"
     transform="translate(-55.002134,-37.592927)">
    <path
       d="m 84.047567,37.592927 c 13.16727,3.35252 20.988393,8.23191 22.757253,12.00039 2.1555,4.58659 -4.15945,7.66011 -19.001723,4.78552 -7.66785,-1.48553 -11.58873,-0.43748 -12.90891,1.36237 -5.83702,7.95118 14.39873,21.54903 23.80787,27.10786 -45.68932,-11.37088 -66.555432,19.805173 -7.31561,32.636593 5.06709,1.09801 14.787983,1.4907 14.763013,2.94866 -0.003,1.5656 -24.976483,1.69647 -38.149783,2.09779 8.98455,2.39838 30.58873,4.032 44.634383,2.70234 13.65296,-1.29001 19.61655,-5.91793 2.39665,-10.14801 -8.88727,-2.18047 -43.716393,-8.77618 -40.046953,-15.803323 5.3599,-10.26255 28.526213,-7.79186 42.022453,-9.19295 -33.183423,-22.77536 -40.711773,-28.1413 4.31963,-22.27844 11.78079,2.60931 -4.98273,-16.53015 -22.559203,-24.53559 -4.12499,-1.63623 -9.62526,-2.89955 -14.71907,-3.68321"
       fill="#111112"
       stroke="none"
       id="path2-3"
       style="fill:#1c71d8;stroke-width:0.861168" />
  </g>
</svg>
